<svg width="48" height="48" viewBox="0 0 48 48" fill="none" xmlns="http://www.w3.org/2000/svg">
<path d="M24 42.165C13.9838 42.165 5.83496 34.0162 5.83496 24C5.83496 13.9838 13.9838 5.83496 24 5.83496C34.0162 5.83496 42.165 13.9838 42.165 24C42.165 34.0162 34.0162 42.165 24 42.165Z" fill="#CCEFFE"/>
<path d="M41.3302 24.0001C41.3302 14.4451 33.555 6.66991 24 6.66988C14.445 6.66988 6.66981 14.4451 6.66981 24.0001C6.66985 33.555 14.445 41.3302 24 41.3302C33.555 41.3302 41.3301 33.555 41.3302 24.0001ZM43 24.0001C43 34.4774 34.4774 43 24 43.0001C13.5226 43.0001 5.00004 34.4775 5 24.0001C5 13.5226 13.5226 5.00006 24 5.00006C34.4774 5.0001 43 13.5226 43 24.0001Z" fill="#223948"/>
<path d="M29.1611 27.6019C29.2269 28.1277 29.0349 28.7254 28.5857 29.3937C28.1362 30.0626 27.5608 30.6818 26.8595 31.2515C26.1577 31.8217 25.4071 32.3034 24.6071 32.6981C23.8068 33.0927 23.0785 33.29 22.4206 33.29C21.4344 33.29 20.7382 33.0927 20.333 32.6981C19.9276 32.3032 19.659 31.6788 19.5274 30.8239C19.4615 30.4078 19.4236 29.8541 19.4122 29.1635C19.4013 28.4731 19.4343 27.728 19.5109 26.928C19.588 26.128 19.7138 25.3116 19.889 24.4783C20.0642 23.6454 20.3 22.8838 20.5959 22.1932C20.8917 21.5028 21.2477 20.922 21.6646 20.4506C22.0808 19.9793 22.5739 19.7 23.1441 19.6125C23.7139 19.5464 24.207 19.5685 24.6236 19.6779C25.0398 19.7879 25.3248 19.9523 25.4786 20.1712C25.6315 20.3906 25.7302 20.5987 25.7746 20.7958C25.7961 21.2126 25.7796 21.5903 25.7252 21.9299C25.6702 22.2701 25.5823 22.6203 25.4621 22.9821C25.3413 23.3438 25.2042 23.7331 25.0511 24.1496C24.8976 24.566 24.7332 25.0702 24.558 25.662C24.4044 26.1666 24.2401 26.7526 24.0649 27.4209C23.8891 28.0898 23.7797 28.7746 23.7359 29.4758C23.7797 29.8268 23.9876 30.002 24.3607 30.002C24.8209 30.002 25.3636 29.7114 25.9881 29.1304C26.6129 28.5498 27.2647 27.8761 27.9445 27.1084C27.988 27.0428 28.0539 26.9659 28.1416 26.8784C28.2289 26.7911 28.2947 26.7467 28.3389 26.7467C28.5141 26.7688 28.6841 26.8619 28.8484 27.0265C29.0132 27.1907 29.1169 27.3828 29.1611 27.6019Z" fill="#223948"/>
<path d="M26.1391 18.1071C27.5502 18.1071 28.6942 16.9632 28.6942 15.552C28.6942 14.1409 27.5502 12.9969 26.1391 12.9969C24.7279 12.9969 23.584 14.1409 23.584 15.552C23.584 16.9632 24.7279 18.1071 26.1391 18.1071Z" fill="#223948"/>
</svg>
