<svg xmlns="http://www.w3.org/2000/svg" width="64" height="64" fill="none"><mask id="a" width="58" height="59" x="3" y="2.999" fill="#000" maskUnits="userSpaceOnUse"><path fill="#fff" d="M3 2.999h58v59H3z"/><path d="M36.594 57.408a1.77 1.77 0 0 1-1.761 1.594h-5.658a1.775 1.775 0 0 1-1.76-1.594l-1.179-4.937c1.835.514 3.769.79 5.767.79s3.93-.276 5.765-.79zM53.21 46.721c.26.315.402.713.401 1.122 0 .232-.044.462-.133.676-.088.215-.22.41-.385.574l-4 4.002a1.77 1.77 0 0 1-1.253.518c-.408 0-.804-.141-1.12-.4l-4.319-2.657a21.44 21.44 0 0 0 8.174-8.123zm-39.786-4.292a21.44 21.44 0 0 0 8.176 8.126l-4.317 2.655c-.315.26-.714.402-1.123.401a1.8 1.8 0 0 1-.677-.133 1.8 1.8 0 0 1-.573-.386l-4.002-4a1.773 1.773 0 0 1-.117-2.371zm18.578-29.854c10.682 0 19.341 8.66 19.342 19.343S42.685 51.26 32.003 51.26C21.32 51.26 12.66 42.6 12.66 31.918s8.66-19.343 19.343-19.343M32 22.908a9.01 9.01 0 1 0 0 18.02c4.977 0 9.013-4.033 9.013-9.01s-4.036-9.01-9.013-9.01m-20.58 3.347a21.4 21.4 0 0 0-.76 5.663c0 2.022.281 3.979.807 5.833l-4.873-1.163A1.77 1.77 0 0 1 5 34.83v-5.66a1.775 1.775 0 0 1 1.594-1.76zm45.986 1.155A1.773 1.773 0 0 1 59 29.17v5.66a1.77 1.77 0 0 1-1.594 1.76l-4.868 1.159a21.4 21.4 0 0 0 .807-5.831c0-1.96-.266-3.86-.761-5.662zM16.16 10.39c.409-.002.807.138 1.122.398l4.18 2.57a21.44 21.44 0 0 0-8.084 8.134l-2.588-4.212a1.77 1.77 0 0 1 .12-2.372l4-4c.164-.165.358-.297.572-.386.215-.088.446-.133.678-.133m31.682 0a1.77 1.77 0 0 1 1.253.518l4 4c.164.163.297.358.386.572.088.215.133.448.132.68.001.408-.141.805-.401 1.12l-2.587 4.206a21.44 21.44 0 0 0-8.083-8.13l4.18-2.568a1.76 1.76 0 0 1 1.12-.399M34.833 4.998c.438 0 .862.164 1.188.458.324.294.529.7.573 1.136l1.136 4.76a21.4 21.4 0 0 0-5.727-.778c-1.983 0-3.904.271-5.726.777l1.137-4.76A1.774 1.774 0 0 1 29.174 5z"/></mask><path fill="#CCEFFE" d="M36.594 57.408a1.77 1.77 0 0 1-1.761 1.594h-5.658a1.775 1.775 0 0 1-1.76-1.594l-1.179-4.937c1.835.514 3.769.79 5.767.79s3.93-.276 5.765-.79zM53.21 46.721c.26.315.402.713.401 1.122 0 .232-.044.462-.133.676-.088.215-.22.41-.385.574l-4 4.002a1.77 1.77 0 0 1-1.253.518c-.408 0-.804-.141-1.12-.4l-4.319-2.657a21.44 21.44 0 0 0 8.174-8.123zm-39.786-4.292a21.44 21.44 0 0 0 8.176 8.126l-4.317 2.655c-.315.26-.714.402-1.123.401a1.8 1.8 0 0 1-.677-.133 1.8 1.8 0 0 1-.573-.386l-4.002-4a1.773 1.773 0 0 1-.117-2.371zm18.578-29.854c10.682 0 19.341 8.66 19.342 19.343S42.685 51.26 32.003 51.26C21.32 51.26 12.66 42.6 12.66 31.918s8.66-19.343 19.343-19.343M32 22.908a9.01 9.01 0 1 0 0 18.02c4.977 0 9.013-4.033 9.013-9.01s-4.036-9.01-9.013-9.01m-20.58 3.347a21.4 21.4 0 0 0-.76 5.663c0 2.022.281 3.979.807 5.833l-4.873-1.163A1.77 1.77 0 0 1 5 34.83v-5.66a1.775 1.775 0 0 1 1.594-1.76zm45.986 1.155A1.773 1.773 0 0 1 59 29.17v5.66a1.77 1.77 0 0 1-1.594 1.76l-4.868 1.159a21.4 21.4 0 0 0 .807-5.831c0-1.96-.266-3.86-.761-5.662zM16.16 10.39c.409-.002.807.138 1.122.398l4.18 2.57a21.44 21.44 0 0 0-8.084 8.134l-2.588-4.212a1.77 1.77 0 0 1 .12-2.372l4-4c.164-.165.358-.297.572-.386.215-.088.446-.133.678-.133m31.682 0a1.77 1.77 0 0 1 1.253.518l4 4c.164.163.297.358.386.572.088.215.133.448.132.68.001.408-.141.805-.401 1.12l-2.587 4.206a21.44 21.44 0 0 0-8.083-8.13l4.18-2.568a1.76 1.76 0 0 1 1.12-.399M34.833 4.998c.438 0 .862.164 1.188.458.324.294.529.7.573 1.136l1.136 4.76a21.4 21.4 0 0 0-5.727-.778c-1.983 0-3.904.271-5.726.777l1.137-4.76A1.774 1.774 0 0 1 29.174 5z"/><path fill="#223948" d="m36.594 57.408-1.946-.463-.03.13-.014.132zm-.574 1.135 1.343 1.483zm-1.187.459v2h.002zm-5.658 0-.002 2h.002zm-1.188-.46-1.342 1.483zm-.573-1.134 1.99-.201-.014-.133-.03-.13zm-1.178-4.937.54-1.925-3.274-.917.789 3.307zm5.767.79v2zm5.765-.79 1.945.463.786-3.304-3.27.915zm15.443-5.75-1.704 1.047.072.117.088.107zm.401 1.122-2-.006v.01zm-.133.676 1.848.766zm-.385.574-1.411-1.418-.004.004zm-4 4.002-1.415-1.413-.003.002zm-.575.383.764 1.849zm-.678.135.005-2h-.01zm-1.12-.4 1.271-1.545-.106-.087-.117-.072zm-4.319-2.657-.976-1.745-2.975 1.663 2.904 1.786zm8.174-8.123 1.704-1.047-1.773-2.884-1.67 2.944zm-37.151-.005 1.74-.986-1.672-2.949-1.773 2.89zm8.176 8.127 1.047 1.704 2.904-1.785-2.975-1.664zm-4.317 2.655-1.047-1.704-.118.072-.106.088zm-1.123.401.005-2h-.01zm-.677-.133-.765 1.848zm-.573-.386 1.418-1.41-.004-.004zm-4.002-4-1.416 1.413.002.002zm-.514-1.163-1.997.099zm.397-1.209 1.55 1.265.085-.104.07-.115zm21.21-34.145.001-2zm19.343 19.343h2zM32.003 51.26v2zM12.66 31.918h-2zM32 22.908v-2zm-9.01 9.01h-2zm9.01 9.01v2zm9.013-9.01h2zM11.42 26.255l1.929.53.895-3.263-3.29.788zm-.76 5.663h-2zm.807 5.833-.465 1.945 3.32.792-.931-3.283zm-4.873-1.163.464-1.946-.13-.03-.133-.014zm-1.136-.574-1.483 1.342zM5 34.83H3v.004zm0-5.66-2-.002v.003zm.458-1.187-1.483-1.342zm1.136-.573.201 1.99.134-.014.13-.031zm50.812 0-.465 1.945.13.031.134.014zm1.136.573 1.483-1.342zM59 29.171h2v-.003zm0 5.659 2 .004v-.004zm-.458 1.184 1.483 1.342zm-1.136.576-.201-1.99-.133.013-.129.031zm-4.868 1.159-1.924-.546-.93 3.281 3.317-.79zm.807-5.831h2zm-.761-5.662.466-1.945-3.29-.788.895 3.262zM16.159 10.389l-.004 2h.01zm1.122.399-1.27 1.544.106.088.117.072zm4.18 2.57.99 1.737 2.937-1.672-2.88-1.77zm-8.084 8.134-1.704 1.047 1.782 2.901 1.666-2.97zm-2.588-4.212 1.704-1.047-.07-.114-.085-.104zm-.395-1.208-1.998-.1v.002zm.515-1.164-1.414-1.414-.002.002zm4-4 1.414 1.414.004-.004zm.572-.386-.765-1.848h-.001zm32.36-.133.001 2h.004zm.678.133.765-1.847-.001-.001zm.575.386-1.419 1.41.005.004zm4 4-1.415 1.414.005.004zm.386.572 1.847-.765v-.002zm.132.68-2-.005v.01zm-.401 1.12-1.544-1.271-.087.106-.073.117zm-2.587 4.206-1.744.98 1.665 2.966 1.783-2.898zm-8.083-8.13-1.047-1.705-2.882 1.77 2.94 1.673zm4.18-2.568 1.047 1.704.117-.072.106-.087zm-11.888-5.79.003-2h-.003zm1.188.459 1.342-1.482v-.002zm.573 1.136-1.99.201.013.133.031.13zm1.136 4.76-.536 1.926 3.268.909-.787-3.3zm-5.727-.778v-2zm-5.726.777-1.945-.464-.788 3.3 3.269-.909zm1.137-4.76 1.945.465.031-.13.014-.134zm.573-1.135-1.342-1.483zm1.188-.458v-2h-.003zm7.419 52.409-1.99-.201a.23.23 0 0 1 .074-.147l1.343 1.483 1.342 1.482a3.77 3.77 0 0 0 1.22-2.416zm-.574 1.135-1.342-1.483a.23.23 0 0 1 .153-.058l.002 2 .002 2a3.78 3.78 0 0 0 2.528-.976zm-1.187.459v-2h-5.658v4h5.658zm-5.658 0 .002-2q.09.001.152.058l-1.342 1.483-1.342 1.483c.691.625 1.592.975 2.528.976zm-1.188-.46 1.343-1.482q.064.06.074.147l-1.99.201-1.99.201c.094.928.529 1.79 1.22 2.416zm-.573-1.134 1.945-.464-1.177-4.937-1.946.464-1.945.465 1.178 4.936zm-1.178-4.937-.539 1.926a23.4 23.4 0 0 0 6.306.864v-4c-1.814 0-3.566-.25-5.227-.716zm5.767.79v2c2.182 0 4.297-.302 6.304-.864l-.54-1.926-.539-1.925c-1.66.464-3.412.715-5.225.715zm5.765-.79-1.946-.462-1.174 4.936 1.946.463 1.945.463 1.174-4.937zm15.443-5.75-1.544 1.271a.24.24 0 0 1-.055-.155l2 .005 2 .006a3.76 3.76 0 0 0-.858-2.4zm.401 1.122-2 .003q-.001-.038.02-.092l1.848.765 1.847.765a3.8 3.8 0 0 0 .285-1.445zm-.133.676-1.847-.765a.2.2 0 0 1 .05-.079l1.412 1.418 1.41 1.417c.346-.344.63-.759.823-1.225zm-.385.574-1.415-1.414-4 4.003 1.415 1.413 1.414 1.414 4-4.003zm-4 4.002-1.418-1.41a.2.2 0 0 1 .077-.055l.766 1.848.765 1.848c.447-.185.869-.46 1.227-.82zm-.575.383-.765-1.848a.2.2 0 0 1 .092-.017l-.005 2-.005 2c.502.001.994-.1 1.447-.286zm-.678.135-.004-2c.058 0 .113.02.155.055l-1.27 1.545-1.27 1.544c.672.554 1.518.858 2.393.856zm-1.12-.4 1.048-1.704-4.319-2.656-1.048 1.703-1.047 1.704 4.319 2.656zm-4.319-2.657.977 1.746a23.44 23.44 0 0 0 8.937-8.882l-1.74-.987-1.74-.987a19.44 19.44 0 0 1-7.41 7.365zm8.174-8.123-1.704 1.047 2.635 4.288 1.704-1.047 1.704-1.048-2.635-4.287zm-37.151-.005-1.74.987a23.44 23.44 0 0 0 8.94 8.886l.976-1.746.976-1.745a19.44 19.44 0 0 1-7.412-7.368zm8.176 8.127-1.048-1.703-4.317 2.654 1.048 1.704 1.048 1.703 4.316-2.654zm-4.317 2.655-1.271-1.544a.24.24 0 0 1 .153-.055l-.005 2-.005 2a3.76 3.76 0 0 0 2.4-.857zm-1.123.401-.005-2a.2.2 0 0 1 .093.02l-.765 1.847-.765 1.848a3.8 3.8 0 0 0 1.447.285zm-.677-.133.766-1.848a.2.2 0 0 1 .079.052l-1.418 1.41-1.418 1.411c.345.346.76.63 1.226.823zm-.573-.386 1.414-1.414-4.002-4-1.414 1.415-1.414 1.414 4.002 4zm-4.002-4 1.416-1.412a.23.23 0 0 1 .068.149l-1.998.1-1.997.099a3.77 3.77 0 0 0 1.095 2.477zm-.514-1.163 1.998-.1a.23.23 0 0 1-.051.156l-1.55-1.264-1.55-1.265c-.59.724-.89 1.64-.844 2.572zm.397-1.209 1.705 1.046 2.633-4.292-1.705-1.045-1.705-1.046-2.633 4.292zm21.21-34.145v2c9.578 0 17.343 7.765 17.343 17.343h4c0-11.787-9.555-21.343-21.342-21.343zm19.343 19.343h-2c0 9.577-7.765 17.342-17.342 17.343v4c11.787 0 21.342-9.557 21.342-21.343zM32.003 51.26v-2c-9.578 0-17.343-7.766-17.343-17.343h-4c0 11.787 9.556 21.343 21.343 21.343zM12.66 31.918h2c0-9.578 7.765-17.343 17.343-17.343v-4c-11.787 0-21.343 9.556-21.343 21.343zM32 22.908v-2c-6.08 0-11.01 4.928-11.01 11.01h4a7.01 7.01 0 0 1 7.01-7.01zm-9.01 9.01h-2c0 6.081 4.929 11.01 11.01 11.01v-4a7.01 7.01 0 0 1-7.01-7.01zm9.01 9.01v2c6.081 0 11.013-4.928 11.013-11.01h-4c0 3.871-3.14 7.01-7.013 7.01zm9.013-9.01h2c0-6.082-4.932-11.01-11.013-11.01v4a7.01 7.01 0 0 1 7.013 7.01zM11.42 26.255l-1.929-.53a23.4 23.4 0 0 0-.83 6.193h4c0-1.78.24-3.501.688-5.134zm-.76 5.663h-2c0 2.208.307 4.348.883 6.378l1.924-.545 1.924-.546a19.4 19.4 0 0 1-.73-5.287zm.807 5.833.464-1.946-4.873-1.163-.464 1.946-.465 1.945 4.874 1.163zm-4.873-1.163.2-1.99c.055.005.107.03.147.074l-1.483 1.342-1.483 1.342a3.77 3.77 0 0 0 2.418 1.221zm-1.136-.574 1.483-1.342a.23.23 0 0 1 .059.154l-2 .004-2 .004a3.77 3.77 0 0 0 .975 2.522zM5 34.83h2v-5.66H3v5.66zm0-5.66 2 .003c0 .056-.02.11-.059.152l-1.483-1.342-1.483-1.342A3.78 3.78 0 0 0 3 29.168zm.458-1.187 1.483 1.343a.23.23 0 0 1-.146.074l-.201-1.99-.202-1.99a3.77 3.77 0 0 0-2.417 1.22zm1.136-.573.465 1.945 4.827-1.155-.466-1.945-.466-1.945-4.826 1.155zm50.812 0-.2 1.99a.23.23 0 0 1-.147-.075l1.483-1.342 1.483-1.342a3.77 3.77 0 0 0-2.418-1.221zm1.136.573-1.483 1.342a.23.23 0 0 1-.059-.152l2-.002 2-.003a3.78 3.78 0 0 0-.975-2.527zM59 29.171h-2v5.659h4v-5.66zm0 5.659-2-.004c0-.059.022-.112.058-.153l1.484 1.341 1.484 1.342c.623-.69.972-1.588.974-2.522zm-.458 1.184-1.483-1.342a.22.22 0 0 1 .146-.072l.201 1.99.202 1.99a3.78 3.78 0 0 0 2.417-1.224zm-1.136.576-.463-1.946-4.868 1.16.463 1.945.463 1.945 4.869-1.159zm-4.868 1.159 1.924.545c.575-2.029.883-4.168.883-6.376h-4c0 1.835-.256 3.608-.731 5.285zm.807-5.831h2c0-2.142-.29-4.219-.832-6.192l-1.929.53-1.929.529a19.4 19.4 0 0 1 .69 5.133zm-.761-5.662-.466 1.945 4.823 1.154.465-1.945.466-1.945-4.822-1.154zM16.159 10.389l.006 2a.24.24 0 0 1-.155-.057l1.271-1.544 1.271-1.544a3.76 3.76 0 0 0-2.398-.855zm1.122.399-1.047 1.704 4.18 2.569 1.047-1.704 1.047-1.704-4.18-2.569zm4.18 2.57-.99-1.739a23.44 23.44 0 0 0-8.838 8.895l1.744.978 1.744.978a19.45 19.45 0 0 1 7.33-7.375zm-8.084 8.134 1.704-1.047-2.588-4.212-1.704 1.047-1.704 1.047 2.588 4.212zm-2.588-4.212 1.55-1.265a.23.23 0 0 1 .052.155l-1.997-.098-1.998-.098c-.046.926.25 1.844.844 2.57zm-.395-1.208 1.997.1a.22.22 0 0 1-.066.148l-1.416-1.412-1.416-1.412a3.78 3.78 0 0 0-1.097 2.476zm.515-1.164 1.414 1.414 4-4-1.414-1.414-1.414-1.414-4 4zm4-4 1.418 1.41a.2.2 0 0 1-.079.052l-.767-1.848-.766-1.847c-.467.194-.881.478-1.224.823zm.572-.386.766 1.848a.2.2 0 0 1-.092.02l.004-2 .005-2a3.8 3.8 0 0 0-1.448.284zm32.36-.133.005 2a.2.2 0 0 1-.092-.018l.765-1.849.764-1.848a3.8 3.8 0 0 0-1.448-.285zm.678.133-.766 1.848a.2.2 0 0 1-.078-.052l1.419-1.41 1.418-1.41a3.8 3.8 0 0 0-1.228-.823zm.575.386-1.415 1.414 4 4 1.415-1.414 1.414-1.414-4-4zm4 4-1.41 1.418a.2.2 0 0 1-.052-.079l1.848-.767 1.847-.767a3.8 3.8 0 0 0-.823-1.223zm.386.572-1.848.766a.2.2 0 0 1-.02-.091l2 .005 2 .005a3.8 3.8 0 0 0-.285-1.45zm.132.68-2 .005c0-.06.02-.115.055-.156l1.544 1.271 1.544 1.272c.553-.673.86-1.52.857-2.397zm-.401 1.12-1.704-1.048-2.587 4.206 1.704 1.048 1.704 1.048 2.586-4.206zm-2.587 4.206 1.744-.979a23.44 23.44 0 0 0-8.838-8.89l-.989 1.738-.99 1.739a19.44 19.44 0 0 1 7.329 7.371zm-8.083-8.13 1.047 1.704 4.18-2.568-1.046-1.704-1.047-1.704-4.18 2.567zm4.18-2.568 1.27 1.545a.25.25 0 0 1-.149.056l-.001-2-.002-2c-.869.001-1.71.297-2.387.853zm-11.888-5.79-.003 2a.23.23 0 0 1-.151-.058l1.341-1.483 1.342-1.483a3.78 3.78 0 0 0-2.526-.975zm1.188.459-1.343 1.482a.22.22 0 0 1-.074-.145l1.99-.201 1.99-.202a3.78 3.78 0 0 0-1.22-2.416zm.573 1.136-1.946.464 1.136 4.76 1.946-.465 1.945-.464-1.136-4.76zm1.136 4.76.535-1.928a23.4 23.4 0 0 0-6.262-.85v4c1.8 0 3.541.246 5.191.704zm-5.727-.778v-2a23.4 23.4 0 0 0-6.261.85l.535 1.927.536 1.927a19.4 19.4 0 0 1 5.19-.704zm-5.726.777 1.946.465 1.136-4.76-1.945-.464-1.945-.465-1.137 4.76zm1.137-4.76 1.99.201a.23.23 0 0 1-.074.146l-1.343-1.482-1.343-1.482a3.77 3.77 0 0 0-1.22 2.417zm.573-1.135L29.33 6.94a.23.23 0 0 1-.152.059l-.002-2-.003-2a3.78 3.78 0 0 0-2.527.975zm1.188-.458v2h5.658v-4h-5.658z" mask="url(#a)"/></svg>