<svg width="64" height="64" viewBox="0 0 64 64" fill="none" xmlns="http://www.w3.org/2000/svg">
<g clip-path="url(#clip0_4168_27993)">
<path d="M45.6173 13.9851C53.9124 14.1316 55.9591 16.4685 56.422 17.3142H56.423C56.4242 17.3163 56.4247 17.3189 56.4259 17.321C56.4282 17.3253 56.4315 17.3295 56.4337 17.3337H56.4318C56.5052 17.4702 56.5421 17.5987 56.5597 17.7009L56.5724 17.7976L56.5734 17.8083L58.8829 44.3503L58.8839 44.3542C58.9457 45.1059 58.3472 45.7076 57.6427 45.7097H57.6281C57.4346 45.7074 57.2763 45.6576 57.173 45.616V45.6169C55.8168 45.0713 50.8434 43.2412 45.2365 43.241C40.264 43.2413 35.8355 45.2039 34.5958 45.8074L34.5929 45.8083C34.5268 45.8403 34.4313 45.8812 34.3156 45.908C34.2049 45.9335 34.0102 45.961 33.7833 45.8992C33.5249 45.8287 33.3128 45.6654 33.1779 45.4539C33.0608 45.2701 33.0288 45.0935 33.0177 45.0007C32.9978 44.8332 33.0212 44.6765 33.0226 44.6648C33.0237 44.6559 33.0249 44.6488 33.0255 44.6433V17.9187C33.0255 16.5925 34.1012 15.8114 35.0382 15.3748C36.0389 14.9085 37.3307 14.6114 38.5958 14.4138C41.1463 14.0154 43.8996 13.9783 44.7882 13.9783L45.6173 13.9851ZM32.3302 44.7908L32.3243 44.9841C32.3188 45.0588 32.3029 45.2226 32.2296 45.4001C32.1509 45.5908 31.9534 45.9098 31.5363 46.0369C31.1592 46.1516 30.8417 46.032 30.6906 45.9587L30.6886 45.9578C29.4491 45.3541 25.02 43.3924 20.046 43.3923C14.4389 43.3924 9.46484 45.2246 8.1095 45.7703L8.10852 45.7693C7.91378 45.8479 7.74084 45.8572 7.65637 45.8582H7.64465C6.9466 45.858 6.33963 45.2656 6.40051 44.5076L6.40149 44.5007L8.70813 17.9597L8.70911 17.9558C8.72184 17.8155 8.76014 17.6502 8.84875 17.4841L8.95618 17.3044C9.60241 16.3222 12.0105 14.1297 20.4962 14.1296C21.3737 14.1297 24.14 14.1966 26.7081 14.6033C27.9826 14.8051 29.2805 15.1005 30.2843 15.5496C31.1969 15.9578 32.3291 16.7077 32.3302 18.0242V44.7908Z" fill="#CCEFFE" stroke="#223948" stroke-width="2"/>
<path d="M45.6804 44.0938C51.0516 44.2365 56.9045 46.5215 56.987 46.5537L57.0339 46.5732L56.6237 47.4854L57.0349 46.5742H57.0358L57.0388 46.5752C57.0404 46.576 57.0423 46.5771 57.0446 46.5781C57.0494 46.5803 57.0559 46.5835 57.0632 46.5869C57.0777 46.5937 57.0974 46.6028 57.1208 46.6143C57.1678 46.6373 57.2324 46.6698 57.3083 46.7109C57.4581 46.7921 57.6637 46.9136 57.8757 47.0674C58.0822 47.2172 58.3292 47.4229 58.5329 47.6826C58.7327 47.9374 58.9538 48.3256 58.9538 48.8164L58.9421 49.0537C58.8221 50.2258 57.8267 51.1463 56.6237 51.1465H56.4675L56.319 51.0996C56.2894 51.0902 54.4368 50.5002 52.1081 49.9121C49.7381 49.3136 46.9941 48.7481 45.1628 48.748C43.3324 48.7483 40.5909 49.313 38.2224 49.9111C35.9892 50.4751 34.1926 51.0404 34.0212 51.0947C33.5921 51.2671 33.1813 51.384 32.7106 51.3779C32.3623 51.3734 32.0257 51.3018 31.6843 51.2041L31.3405 51.0996H31.3395C31.3388 51.0994 31.3373 51.0982 31.3356 51.0977C31.3325 51.0966 31.3274 51.0958 31.321 51.0938C31.3075 51.0895 31.2866 51.0827 31.2595 51.0742C31.2052 51.0572 31.1239 51.0312 31.0192 50.999C30.8099 50.9346 30.5055 50.8424 30.1276 50.7314C29.3705 50.5091 28.3205 50.2129 27.1501 49.917C24.9238 49.3541 22.3628 48.8195 20.5378 48.7549L20.1833 48.748C18.3461 48.7482 15.5909 49.3167 13.2165 49.917C12.0461 50.2129 10.996 50.5092 10.239 50.7314C9.86091 50.8424 9.5567 50.9356 9.34735 51C9.24268 51.0322 9.16141 51.0572 9.10712 51.0742C9.07999 51.0827 9.05912 51.0895 9.04559 51.0938C9.03916 51.0958 9.03412 51.0966 9.03094 51.0977L9.02704 51.0996L8.87762 51.1465H8.72137C7.51718 51.1455 6.52555 50.2239 6.40594 49.0537L6.39423 48.8164L6.40399 48.6387C6.44817 48.2361 6.63542 47.913 6.80829 47.6904C7.00933 47.4316 7.25386 47.2261 7.45868 47.0762C7.8695 46.7755 8.27408 46.5906 8.31024 46.5742L8.33368 46.5635L8.35809 46.5547L8.72235 47.4854L8.35809 46.5537H8.36005C8.36107 46.5533 8.36229 46.5524 8.36395 46.5518C8.36759 46.5503 8.37311 46.5484 8.37958 46.5459C8.39282 46.5408 8.41256 46.5328 8.43719 46.5234C8.48644 46.5047 8.55808 46.4783 8.65009 46.4443C8.83472 46.3763 9.10227 46.2793 9.43915 46.1641C10.1124 45.9338 11.0651 45.6276 12.1882 45.3213C14.4207 44.7123 17.3851 44.087 20.1833 44.0869L20.7097 44.0938C23.3492 44.1647 26.0854 44.7503 28.1784 45.3213C29.3015 45.6276 30.2542 45.9338 30.9274 46.1641C31.2643 46.2793 31.5319 46.3763 31.7165 46.4443C31.8085 46.4783 31.8801 46.5047 31.9294 46.5234C31.9376 46.5266 31.9458 46.5296 31.9528 46.5322C32.2623 46.6195 32.4758 46.6496 32.6677 46.6484C32.8621 46.6472 33.0811 46.6141 33.405 46.5293C34.0846 46.2696 39.949 44.0872 45.1628 44.0869L45.6804 44.0938Z" fill="#CCEFFE" stroke="#223948" stroke-width="2"/>
</g>
<defs>
<clipPath id="clip0_4168_27993">
<rect width="64" height="64" fill="white"/>
</clipPath>
</defs>
</svg>
