<svg width="48" height="48" viewBox="0 0 48 48" fill="none" xmlns="http://www.w3.org/2000/svg">
<path d="M30.8383 9.2808H30.8406L30.8429 9.28078L35.906 9.1772L33.1735 11.8283V11.866L33.1077 11.9558C32.9033 13.2837 34.0072 14.4474 35.3441 14.3134L35.5038 14.2974L35.582 14.2895L35.6385 14.2348L38.4109 11.5445L38.5397 16.4119C38.5397 17.1662 38.5789 17.8997 38.8413 18.4463C38.9765 18.7274 39.1724 18.9645 39.4534 19.1289C39.7324 19.2922 40.0785 19.3741 40.4989 19.3741C40.9198 19.3741 41.2659 19.2922 41.5449 19.1289C41.826 18.9645 42.0219 18.7274 42.1571 18.4463C42.4199 17.899 42.4587 17.1643 42.4587 16.4089V8.11803C42.4587 6.46707 41.0691 5.12885 39.3844 5.12885H30.8383C30.0494 5.12885 29.3867 5.22126 28.9211 5.54929C28.4349 5.8919 28.2134 6.45196 28.2134 7.25292C28.2134 8.05398 28.4354 8.59535 28.9289 8.91362C29.3943 9.21389 30.0566 9.2808 30.8383 9.2808Z" fill="#CCEFFE"/>
<path d="M27.585 7.25331C27.585 6.33892 27.8425 5.53933 28.5586 5.03468L28.6805 4.95482C29.3005 4.5754 30.0844 4.50024 30.8387 4.50024H39.3845C41.3981 4.50024 43.0877 6.10182 43.0877 8.11844V16.4094C43.0877 17.0592 43.0647 17.8091 42.8359 18.4509L42.7243 18.7191C42.5442 19.0934 42.2689 19.4344 41.8622 19.6723L41.8612 19.6713C41.4622 19.9045 41.0001 20.003 40.4995 20.003C39.9987 20.003 39.535 19.905 39.1358 19.6713C38.7291 19.4334 38.4548 19.0933 38.2747 18.7191C37.945 18.0319 37.9117 17.1673 37.9113 16.4288L37.8201 12.9939L36.0766 14.6863L36.0192 14.7416L35.8626 14.8941L35.6445 14.9156L35.5667 14.9238L35.407 14.9392C33.6611 15.1141 32.2193 13.5948 32.486 11.8605L32.5096 11.708L32.5444 11.6599V11.5626L32.7358 11.3773L34.3207 9.83847L30.8561 9.91014H30.8387C30.1097 9.91014 29.3295 9.85959 28.7101 9.51494L28.5883 9.44225C27.8447 8.96275 27.585 8.16772 27.585 7.25331ZM28.8422 7.25331C28.8423 7.94055 29.0268 8.22769 29.2702 8.38464L29.39 8.45119C29.6905 8.59259 30.1488 8.65055 30.8336 8.65083L37.4915 8.51569L33.7474 12.1462L33.7166 12.1892C33.6665 13.0515 34.3999 13.775 35.2811 13.687L35.3005 13.685L39.0016 10.0944L39.1685 16.395V16.4114C39.1685 17.1773 39.2161 17.7727 39.4081 18.1734L39.4818 18.3045C39.534 18.3851 39.5935 18.4528 39.662 18.5092L39.7716 18.586L39.9046 18.6505C40.0519 18.7082 40.2447 18.7447 40.4995 18.7447C40.8399 18.7447 41.0688 18.6789 41.2274 18.586L41.337 18.5092C41.4395 18.4247 41.5222 18.3149 41.5899 18.1745C41.7825 17.7733 41.8294 17.1771 41.8294 16.4094V8.11844C41.8294 6.83314 40.7403 5.7575 39.3845 5.7575H30.8387C30.1621 5.7575 29.7042 5.83335 29.4033 5.99093L29.2835 6.06363C29.0273 6.24422 28.8422 6.56592 28.8422 7.25331Z" fill="#223948"/>
<path d="M30.8391 38.7193H30.8414H30.8437L35.9067 38.8229L33.1745 36.1716V36.1463L33.1085 36.0443C32.9042 34.7163 34.0079 33.5527 35.3448 33.6867L35.5045 33.7027L35.5827 33.7105L35.6393 33.7652L38.4121 36.4557L38.5404 31.5881C38.5404 30.8338 38.5794 30.1003 38.842 29.5536C38.977 29.2726 39.1731 29.0356 39.4542 28.8711C39.7332 28.708 40.0793 28.626 40.5001 28.626C40.9206 28.626 41.2667 28.708 41.5457 28.8711C41.8265 29.0356 42.0231 29.2726 42.1576 29.5536C42.4206 30.101 42.4596 30.8359 42.4596 31.5911V39.8818C42.4596 41.533 41.0703 42.8711 39.3852 42.8711H30.8391C30.0502 42.8711 29.3875 42.7788 28.9221 42.4507C28.4356 42.1082 28.2144 41.548 28.2144 40.7471C28.2144 39.9459 28.4361 39.4046 28.9297 39.0864C29.3951 38.7862 30.0573 38.7193 30.8391 38.7193Z" fill="#CCEFFE"/>
<path d="M41.8304 39.882V31.5911C41.8304 30.8235 41.7837 30.2272 41.5908 29.826C41.5019 29.6401 41.3842 29.5059 41.2284 29.4144L41.0953 29.3499C40.948 29.2922 40.7554 29.2547 40.5005 29.2547C40.1599 29.2547 39.9303 29.3205 39.7715 29.4134L39.7725 29.4144C39.6555 29.4829 39.56 29.5749 39.4818 29.696L39.4091 29.826C39.2167 30.2266 39.1695 30.8215 39.1695 31.588V31.6044L39.0036 37.906L35.3005 34.3134L35.2831 34.3124C34.3984 34.2239 33.661 34.9543 33.7176 35.8215L37.4925 39.4848L30.8335 39.3486C30.1493 39.3489 29.6914 39.408 29.3909 39.5493L29.2712 39.6148C29.0279 39.7716 28.8432 40.0593 28.8432 40.7471C28.8432 41.3493 28.9852 41.6705 29.1923 41.8621L29.2845 41.9368L29.4043 42.0095C29.7049 42.167 30.163 42.2419 30.8397 42.2419H39.3855C40.7417 42.2418 41.8303 41.1674 41.8304 39.882ZM43.0887 39.882C43.0886 41.8987 41.3994 43.5001 39.3855 43.5002H30.8397C30.0353 43.5002 29.1967 43.4139 28.5596 42.9647C27.8436 42.4601 27.5859 41.6608 27.5859 40.7471C27.5859 39.8327 27.8454 39.0378 28.5893 38.5582L28.7101 38.4845C29.3295 38.1397 30.1106 38.0903 30.8397 38.0903H30.8571L34.3207 38.1609L32.7368 36.6232L32.5453 36.4379V36.3314L32.5075 36.273L32.487 36.1399C32.2203 34.4057 33.6618 32.8862 35.408 33.0613L35.5667 33.0766L35.6455 33.0848L35.8636 33.1063L36.0202 33.2589L36.0765 33.3131L36.0775 33.3142L37.8211 35.0055L37.9122 31.588C37.9122 30.846 37.943 29.9739 38.2757 29.2813L38.3474 29.1421C38.5262 28.8227 38.7814 28.5361 39.1367 28.3281L39.2893 28.2472C39.6523 28.0721 40.0618 27.9974 40.5005 27.9974C41.0012 27.9975 41.4642 28.0948 41.8632 28.3281L42.0096 28.4223C42.3362 28.6515 42.5668 28.9527 42.7242 29.2813C43.0573 29.9747 43.0887 30.8484 43.0887 31.5911V39.882Z" fill="#223948"/>
<path d="M17.1615 38.7193H17.1591H17.1569L12.0939 38.8229L14.8262 36.1716L14.8852 36.0486L14.892 36.0443C15.0963 34.7163 13.9925 33.5527 12.6557 33.6867L12.4959 33.7027L12.4177 33.7105L12.3614 33.7652L9.58863 36.4557L9.46013 31.5881C9.46004 30.8338 9.42093 30.1003 9.15845 29.5536C9.02347 29.2726 8.82736 29.0356 8.5464 28.8711C8.26732 28.708 7.92111 28.626 7.50057 28.626C7.08004 28.626 6.73385 28.708 6.45474 28.8711C6.17381 29.0356 5.97765 29.2726 5.84269 29.5536C5.57985 30.101 5.54102 30.8359 5.54102 31.5911V39.8818C5.54102 41.533 6.9304 42.8711 8.61528 42.8711H17.1615C17.9503 42.8711 18.613 42.7788 19.0785 42.4507C19.5648 42.1082 19.7862 41.548 19.7862 40.7471C19.7862 39.9459 19.5643 39.4046 19.0709 39.0864C18.6054 38.7862 17.9432 38.7193 17.1615 38.7193Z" fill="#CCEFFE"/>
<path d="M4.9126 39.882V31.5911C4.9126 30.8484 4.94307 29.9747 5.27606 29.2813L5.34772 29.1421C5.52654 28.8226 5.78191 28.5361 6.13709 28.3281L6.29067 28.2472C6.65352 28.0723 7.06261 27.9974 7.50083 27.9974C8.00173 27.9974 8.46541 28.0948 8.86456 28.3281L9.01097 28.4223C9.33799 28.6519 9.56812 28.9534 9.7256 29.2813L9.8372 29.5485C10.0641 30.1842 10.0886 30.9261 10.0891 31.5716L10.1792 35.0055L11.9238 33.3142L11.9801 33.2589L12.1367 33.1063L12.3548 33.0848L12.4336 33.0766L12.5933 33.0613L12.7561 33.049C14.4277 32.9807 15.7728 34.4599 15.5143 36.1399L15.4713 36.4194L15.3751 36.4809L15.3444 36.5454L15.2645 36.6232L13.6786 38.1609L17.1442 38.0903H17.1616C17.9392 38.0903 18.7752 38.1475 19.412 38.5582L19.5461 38.6514C20.1872 39.1372 20.4154 39.8898 20.4154 40.7471C20.4154 41.6043 20.1886 42.3606 19.5697 42.8675L19.4407 42.9647C18.8035 43.4137 17.9659 43.5002 17.1616 43.5002H8.61577C6.60207 43.5002 4.9127 41.8988 4.9126 39.882ZM6.16985 39.882C6.16996 41.1675 7.25985 42.2419 8.61577 42.2419H17.1616C17.9351 42.2419 18.423 42.1439 18.7168 41.9368L18.809 41.8621C19.016 41.6704 19.1571 41.349 19.1571 40.7471C19.1571 40.1451 19.0165 39.8498 18.8182 39.6803L18.7301 39.6148C18.4366 39.4256 17.9494 39.3489 17.1668 39.3486L10.5088 39.4848L14.2816 35.8225C14.3353 35.0115 13.6969 34.3197 12.8902 34.3052L12.7182 34.3124L12.6978 34.3144L8.99766 37.906L8.8318 31.6044V31.588C8.83171 30.9175 8.79457 30.3785 8.65673 29.9857L8.5912 29.826C8.5237 29.6855 8.44129 29.575 8.33832 29.4902L8.22877 29.4144C8.06977 29.3215 7.84081 29.2547 7.50083 29.2547C7.24552 29.2547 7.05252 29.292 6.90496 29.3499L6.77289 29.4144C6.65628 29.4827 6.56122 29.5745 6.48315 29.6949L6.41045 29.826C6.21777 30.2272 6.16986 30.8234 6.16985 31.5911V39.882Z" fill="#223948"/>
<path d="M17.1605 9.2808H17.1582L17.1559 9.28078L12.093 9.1772L14.8252 11.8283V11.852L14.8911 11.9558C15.0954 13.2837 13.9916 14.4474 12.6547 14.3134L12.495 14.2974L12.4168 14.2895L12.3604 14.2348L9.58765 11.5445L9.45918 16.4119C9.45906 17.1662 9.41995 17.8997 9.15748 18.4463C9.02251 18.7274 8.82636 18.9645 8.54545 19.1289C8.26634 19.2922 7.92013 19.3741 7.4996 19.3741C7.07906 19.3741 6.73285 19.2922 6.45377 19.1289C6.17281 18.9645 5.9767 18.7274 5.84172 18.4463C5.5789 17.899 5.54004 17.1643 5.54004 16.4089V8.11803C5.54004 6.46707 6.92945 5.12885 8.61433 5.12885H17.1605C17.9494 5.12885 18.612 5.22126 19.0776 5.54929C19.5638 5.8919 19.7853 6.45196 19.7853 7.25292C19.7853 8.05398 19.5633 8.59535 19.0699 8.91362C18.6045 9.21389 17.9422 9.2808 17.1605 9.2808Z" fill="#CCEFFE"/>
<path d="M19.1561 7.25331C19.1561 6.65172 19.015 6.33022 18.808 6.13836L18.7159 6.06363C18.422 5.85652 17.934 5.7575 17.1607 5.7575H8.6148C7.2588 5.7575 6.16888 6.83313 6.16888 8.11844V16.4094C6.1689 17.177 6.21683 17.7733 6.40948 18.1745L6.48217 18.3045C6.56036 18.4253 6.65526 18.5178 6.77191 18.586L6.90501 18.6505C7.05234 18.7082 7.245 18.7447 7.49985 18.7447C7.83988 18.7447 8.0689 18.6789 8.22779 18.586L8.33734 18.5092C8.44003 18.4246 8.52281 18.3147 8.59022 18.1745L8.65575 18.0147C8.79371 17.6219 8.83072 17.0822 8.83082 16.4114V16.395L8.99668 10.0944L12.6968 13.685L12.7173 13.687L12.8893 13.6942C13.6965 13.6796 14.3353 12.9876 14.2806 12.1759L10.5078 8.51569L17.1648 8.65083C17.9483 8.65057 18.4356 8.57404 18.7292 8.38464L18.8172 8.31911C19.0153 8.14954 19.156 7.85456 19.1561 7.25331ZM20.4144 7.25331C20.4143 8.11056 20.1862 8.86328 19.5452 9.34908L19.411 9.44225C18.7743 9.85301 17.9382 9.91014 17.1607 9.91014H17.1433L13.6776 9.83847L15.2635 11.3773L15.4539 11.5626V11.668L15.4929 11.7305L15.5133 11.8605C15.7715 13.5404 14.4266 15.0186 12.7551 14.9504L12.5924 14.9392L12.4326 14.9238L12.1357 14.8931L11.9791 14.7416L11.9228 14.6863L10.1782 12.9939L10.0881 16.4288C10.0876 17.0741 10.0629 17.8155 9.83622 18.4509L9.72462 18.7191C9.56717 19.0469 9.33703 19.3487 9.00999 19.5781L8.86359 19.6723C8.46428 19.9059 8.00071 20.003 7.49985 20.003C7.06149 20.003 6.65176 19.9285 6.28867 19.7532L6.13612 19.6723C5.78049 19.4642 5.52554 19.1769 5.34675 18.8573L5.27508 18.7191C4.94219 18.0259 4.91163 17.1521 4.91162 16.4094V8.11844C4.91162 6.10183 6.60104 4.50024 8.6148 4.50024H17.1607C17.9649 4.50024 18.8026 4.58602 19.4397 5.03468L19.5687 5.13297C20.1875 5.63991 20.4144 6.39598 20.4144 7.25331Z" fill="#223948"/>
</svg>
