<svg xmlns="http://www.w3.org/2000/svg" width="64" height="64" fill="none" xmlns:v="https://vecta.io/nano"><style><![CDATA[.B{fill:#fffffe}.C{fill:#223948}]]></style><path d="M19.679 42.101c-2.905 0-5.268-2.378-5.268-5.3V18.678c0-2.923 2.363-5.3 5.268-5.3h24.033c2.905 0 5.268 2.378 5.268 5.3v18.123c0 2.923-2.363 5.301-5.268 5.301H19.679z" class="B"/><path d="M43.711 14.564c2.258 0 4.089 1.842 4.089 4.114V36.8c0 2.272-1.831 4.114-4.089 4.114H19.678c-2.258 0-4.089-1.842-4.089-4.114V18.678c0-2.272 1.831-4.114 4.089-4.114h24.033zm0-2.373H19.678c-3.555 0-6.447 2.91-6.447 6.487V36.8c0 3.577 2.892 6.487 6.447 6.487h24.033c3.555 0 6.447-2.91 6.447-6.487V18.678c0-3.577-2.892-6.487-6.447-6.487z" class="C"/><path d="M20.075 38.644c-1.574 0-2.854-1.288-2.854-2.872V19.706c0-1.584 1.28-2.872 2.854-2.872H43.06c1.575 0 2.854 1.288 2.854 2.872v16.066c0 1.584-1.28 2.872-2.854 2.872H20.075z" class="B"/><path d="M43.061 17.546c1.186 0 2.147.967 2.147 2.16v16.066c0 1.193-.961 2.16-2.147 2.16H20.077c-1.186 0-2.147-.967-2.147-2.16V19.706c0-1.193.961-2.16 2.147-2.16h22.984zm0-1.424H20.077c-1.964 0-3.562 1.608-3.562 3.584v16.066c0 1.976 1.598 3.584 3.562 3.584h22.984c1.964 0 3.562-1.608 3.562-3.584V19.706c0-1.976-1.598-3.584-3.562-3.584z" class="C"/><path d="M23.576 27.002c-1.834 0-3.326-1.502-3.326-3.347s1.492-3.347 3.326-3.347 3.326 1.502 3.326 3.347-1.492 3.347-3.326 3.347z" class="B"/><path d="M23.575 21.02c1.446 0 2.619 1.18 2.619 2.635s-1.172 2.635-2.619 2.635-2.619-1.18-2.619-2.635 1.172-2.635 2.619-2.635h0zm0-1.424c-2.225 0-4.034 1.821-4.034 4.059s1.809 4.059 4.034 4.059 4.034-1.821 4.034-4.059-1.809-4.059-4.034-4.059z" class="C"/><path d="M39.158 27.002c-1.835 0-3.326-1.502-3.326-3.347s1.492-3.347 3.326-3.347 3.326 1.502 3.326 3.347-1.492 3.347-3.326 3.347h0z" class="B"/><g class="C"><path d="M39.159 21.02c1.446 0 2.619 1.18 2.619 2.635s-1.172 2.635-2.619 2.635-2.618-1.18-2.618-2.635 1.173-2.635 2.618-2.635h0zm0-1.424c-2.224 0-4.033 1.821-4.033 4.059s1.809 4.059 4.033 4.059 4.034-1.821 4.034-4.059-1.809-4.059-4.034-4.059zM25.085 35.459c-1.201 0-1.977-.794-1.977-2.024s.776-2.024 1.977-2.024h.472v4.048h-.472z"/><path d="M25.086 31.885v3.099c-1.044 0-1.505-.697-1.505-1.55s.461-1.549 1.505-1.549zm.943-.949h-.943c-1.465 0-2.449 1.004-2.449 2.499s.984 2.499 2.449 2.499h.943v-4.998zm11.516 4.523v-4.048h.472c1.201 0 1.976.794 1.976 2.024s-.776 2.024-1.976 2.024h-.472 0z"/><path d="M38.013 31.885c1.045 0 1.505.697 1.505 1.55s-.462 1.55-1.505 1.55v-3.099zm0-.949h-.943v4.997h.943c1.465 0 2.449-1.004 2.449-2.499s-.983-2.498-2.449-2.498zm-10.607.475h3.449v4.048h-3.449v-4.048z"/><path d="M30.388 31.885v3.099h-2.505v-3.099h2.505 0zm.943-.949H26.94v4.997h4.391v-4.997h0zm1.313.475h3.449v4.048h-3.449v-4.048z"/><path d="M35.614 31.885v3.099h-2.505v-3.099h2.505 0zm.943-.949h-4.392v4.997h4.392v-4.997h0z"/></g><path d="M13.792 56.719c-.69 0-1.332-.312-1.761-.855s-.587-1.243-.432-1.919l2.66-9.874a2.23 2.23 0 0 1 2.182-1.711h30.506c1.054 0 1.956.722 2.193 1.756l2.639 9.786c.166.72.009 1.419-.421 1.963s-1.072.855-1.762.855H13.792h0z" class="B"/><path d="M46.949 43.546c.499 0 .932.346 1.045.836l2.649 9.83c.155.676-.355 1.32-1.044 1.32H13.794c-.689 0-1.199-.644-1.044-1.32l2.649-9.83c.112-.489.545-.836 1.044-.836h30.505zm0-2.373H16.444c-1.588 0-2.949 1.074-3.329 2.619l-2.641 9.798-.012.043-.01.044a3.45 3.45 0 0 0 .658 2.926c.655.828 1.633 1.302 2.684 1.302h35.804c1.051 0 2.031-.475 2.685-1.302a3.45 3.45 0 0 0 .657-2.926l-.01-.044-.012-.043-2.642-9.798c-.379-1.544-1.741-2.619-3.328-2.619h0z" class="C"/><path d="M16.606 52.954a.82.82 0 0 1-.657-.325.83.83 0 0 1-.145-.722l1.363-5.583c.098-.374.427-.629.803-.629h27.454a.83.83 0 0 1 .801.622l1.366 5.598c.064.244.011.506-.147.714a.82.82 0 0 1-.657.326l-30.182-.001h0z" class="B"/><path d="M45.427 46.17c.162 0 .304.11.345.267l1.365 5.591a.36.36 0 0 1-.344.451H16.608a.36.36 0 0 1-.345-.451l1.365-5.591a.36.36 0 0 1 .128-.193c.063-.048.139-.075.218-.075h27.453zm0-.949H17.973c-.59 0-1.107.401-1.258.974l-1.369 5.607c-.1.38-.017.792.231 1.117a1.29 1.29 0 0 0 1.031.51h30.184c.407 0 .782-.186 1.031-.51s.331-.737.226-1.133l-1.361-5.574c-.155-.59-.672-.99-1.262-.99h0z" class="C"/><path d="M29.421 52.658l.455-6.962h4.066l.456 6.962h-4.977z" class="B"/><path d="M33.502 46.17l.393 6.013h-3.969l.393-6.013h3.184zm.883-.949h-4.95l-.058.887-.393 6.013-.066 1.011h5.985l-.067-1.011-.393-6.013-.058-.887h0z" class="C"/><path d="M20.233 52.658l1.366-6.962h4.109l-.91 6.962h-4.564z" class="B"/><path d="M25.169 46.17l-.786 6.013h-3.576l1.179-6.013h3.183zm1.076-.949H21.21l-.15.765L19.881 52l-.223 1.133h5.552l.108-.825.786-6.013.14-1.073z" class="C"/><path d="M38.966 52.658l-.91-6.962h4.109l1.366 6.962h-4.565z" class="B"/><path d="M41.778 46.17l1.179 6.013h-3.576l-.786-6.013h3.183zm.775-.949h-5.034l.14 1.073.787 6.013.108.825h5.552L43.884 52l-1.179-6.013-.152-.765h0z" class="C"/><path d="M20.423 52.659c-.244 0-.472-.109-.625-.301-.075-.094-.129-.204-.156-.322a.81.81 0 0 1-.002-.358l.248-1.134a.8.8 0 0 1 .784-.634h22.054a.81.81 0 0 1 .784.634l.247 1.135a.81.81 0 0 1-.158.679c-.153.192-.382.302-.625.302h-22.55 0z" class="B"/><path d="M42.724 50.384a.33.33 0 0 1 .323.261l.248 1.135c.045.208-.111.405-.323.405h-22.55c-.211 0-.368-.197-.323-.405l.248-1.135a.33.33 0 0 1 .323-.261h22.055 0zm0-.949H20.669c-.594 0-1.117.423-1.245 1.007l-.247 1.135a1.28 1.28 0 0 0 .252 1.078c.243.304.605.479.992.479h22.55c.387 0 .75-.175.992-.479a1.28 1.28 0 0 0 .251-1.078l-.247-1.135c-.127-.583-.651-1.007-1.243-1.007z" class="C"/></svg>