<svg width="64" height="64" viewBox="0 0 64 64" fill="none" xmlns="http://www.w3.org/2000/svg">
<path d="M31.9837 57.1321C21.6249 57.1321 17.0105 55.8339 16.6339 52.8665C16.4456 51.5682 16.4456 49.5282 16.5397 47.3025V44.1495C16.5397 40.8113 20.4948 34.2273 26.1451 33.3926L26.71 33.2998L26.8984 33.5781C27.2751 33.5781 28.4051 33.9489 31.9837 34.1345C35.6563 33.9489 36.6921 33.6709 37.0687 33.5781L37.2571 33.2998H37.8223C43.4724 34.2273 47.3333 40.8113 47.3333 44.1495L47.5215 47.3025V52.8665C47.0505 55.8339 42.4363 57.1321 32.0777 57.1321H31.9837Z" fill="white"/>
<path d="M27.3983 32.7681C27.4331 32.7741 27.4679 32.778 27.5002 32.7837C27.7178 32.8219 27.9947 32.872 28.3696 32.9279C29.1112 33.0385 30.2478 33.1744 31.9859 33.2657C34.7907 33.1227 35.9983 32.9245 36.541 32.8091L36.7969 32.4316H37.8939L37.9631 32.4429C41.0799 32.9545 43.6345 35.0076 45.3867 37.292C47.1095 39.5383 48.1825 42.174 48.2014 44.0977L48.3894 47.2504L48.3908 47.2759V52.9349L48.3795 53.0028C48.0608 55.0093 46.3417 56.2271 43.7411 56.9485C41.1146 57.6771 37.2723 58.0004 32.0792 58.0004H31.9844C26.7914 58.0004 22.948 57.6775 20.3326 56.9485C17.7523 56.2293 16.0398 55.0091 15.776 52.9901L15.7747 52.9915C15.5746 51.6124 15.5788 49.5147 15.6715 47.3027V44.15C15.6715 42.2163 16.7778 39.5497 18.5399 37.2963C20.314 35.0277 22.8907 33.0011 26.0058 32.5363V32.5348L26.5699 32.4429L27.1184 32.3525L27.3983 32.7681ZM17.409 47.3395C17.3266 49.2868 17.3186 51.0363 17.4358 52.2536L17.4938 52.7413L17.4966 52.7568L17.5263 52.9321C17.7187 53.8088 18.545 54.6464 20.7991 55.2747C23.1746 55.9367 26.8188 56.2629 31.9844 56.2629H32.0792C37.2439 56.2629 40.8882 55.9371 43.2759 55.2747C45.643 54.6181 46.4783 53.7253 46.6534 52.7851V47.3211L46.4667 44.2009L46.4654 44.1755V44.15C46.4654 42.74 45.6127 40.4415 44.0083 38.3495C42.4292 36.2909 40.248 34.5993 37.7383 34.1677H37.7186L37.6012 34.3416L37.2775 34.4208C36.8359 34.5296 35.7432 34.8141 32.0283 35.0019L31.9844 35.0047L31.9392 35.0019C30.1243 34.9077 28.9196 34.7657 28.1136 34.6456C27.7122 34.5856 27.411 34.5315 27.199 34.4943C27.091 34.4753 27.0152 34.4629 26.9572 34.4547C26.895 34.4459 26.8842 34.4463 26.8992 34.4463H26.4384L26.3027 34.2469L26.2871 34.2497L26.273 34.2525V34.2511C23.7442 34.6247 21.5219 36.3033 19.9084 38.3665C18.2804 40.4484 17.409 42.7456 17.409 44.15V47.3395Z" fill="#223948"/>
<path d="M31.8919 35.2444C31.2327 35.2444 29.6318 35.2444 29.0669 35.0588C26.1475 34.5025 19.4615 31.906 19.4615 20.2217C19.4615 11.5976 23.7933 6.86816 31.7978 6.86816C39.8965 6.86816 44.5107 11.6903 44.5107 20.1289C44.5107 31.1641 39.1431 34.3169 34.5287 35.0588L31.8919 35.1516V35.2444Z" fill="white"/>
<path d="M43.6416 20.1288C43.6416 16.0629 42.5317 12.9892 40.5638 10.9353C38.6009 8.88679 35.6732 7.73607 31.7973 7.73607C27.968 7.73607 25.1439 8.86363 23.2669 10.9C21.3793 12.9478 20.3291 16.045 20.3291 20.2221C20.3293 25.8889 21.9464 29.2316 23.8041 31.2196C25.4417 32.972 27.3377 33.747 28.687 34.0852L29.2285 34.2053L29.2837 34.2166L29.3374 34.2336C29.4853 34.2821 29.902 34.3296 30.4797 34.3538C30.6618 34.3614 30.8461 34.3632 31.0226 34.3665V34.3128L34.4325 34.1926C36.5905 33.8386 38.8532 32.9352 40.5878 30.8916C42.3348 28.8334 43.6416 25.5086 43.6416 20.1288ZM45.379 20.1288C45.379 25.7836 44.0026 29.5529 41.9125 32.0154C39.8212 34.4792 37.1093 35.523 34.6657 35.916L34.6134 35.9244L34.5584 35.9273L32.7601 35.9894V36.1125H31.892C31.5637 36.1125 30.9813 36.1125 30.4076 36.0884C29.9062 36.0674 29.2814 36.023 28.8623 35.9018C27.2842 35.5948 24.7166 34.7408 22.5345 32.4057C20.3197 30.0353 18.5932 26.2388 18.593 20.2221C18.593 15.7752 19.7095 12.1952 21.9889 9.72236C24.2787 7.23801 27.6222 6.00001 31.7973 6C36.0202 6 39.4489 7.26148 41.8178 9.73367C44.1814 12.2005 45.379 15.7565 45.379 20.1288Z" fill="#223948"/>
</svg>
