<svg width="48" height="48" viewBox="0 0 48 48" fill="none" xmlns="http://www.w3.org/2000/svg">
<path d="M33.3124 10.6721H14.6875C13.8123 10.6721 13.0972 9.95572 13.0972 9.08091V6.5895C13.0972 5.71469 13.8123 5 14.6875 5H33.3124C34.1868 5 34.9032 5.71469 34.9032 6.5895V9.08091C34.9044 9.95572 34.1881 10.6721 33.3124 10.6721ZM33.3124 43H14.6875C13.8123 43 13.0972 42.2841 13.0972 41.4088V38.9183C13.0972 38.0434 13.8123 37.3288 14.6875 37.3288H33.3124C34.1868 37.3288 34.9032 38.0439 34.9032 38.9183V41.4088C34.9044 42.2832 34.1881 43 33.3124 43Z" fill="#223948"/>
<path d="M27.9697 23.2238L30.9669 20.4884C31.2179 20.3317 31.3705 20.0581 31.3705 19.7633V13.7493C31.3705 13.0868 30.8334 12.5501 30.1705 12.5501H17.8556C17.1776 12.5501 16.6284 13.0993 16.6284 13.7773V19.7621C16.6284 20.0573 16.781 20.3304 17.0316 20.4872L20.0288 23.2221C20.176 23.3126 20.2661 23.4756 20.2661 23.6487V24.3471C20.2661 24.5214 20.1756 24.6828 20.0288 24.7737L17.0316 27.509C16.9083 27.5857 16.8065 27.6925 16.7359 27.8195C16.6654 27.9465 16.6284 28.0893 16.6284 28.2345V34.2481C16.6284 34.9103 17.1659 35.4469 17.8276 35.4469H30.17C30.833 35.4469 31.3701 34.9103 31.3701 34.2481V28.235C31.3701 27.9402 31.2171 27.6658 30.9665 27.5094L27.9692 24.7745C27.8966 24.7295 27.8367 24.6668 27.7951 24.5921C27.7536 24.5174 27.7319 24.4334 27.732 24.3479V23.6495C27.7324 23.4765 27.8225 23.3139 27.9697 23.2238Z" fill="white" stroke="#223948" stroke-width="1.26667" stroke-miterlimit="10"/>
<path d="M18.5558 18.3836L23.1863 23.4415C23.2305 23.4907 23.2567 23.5541 23.258 23.6212L23.4577 31.1905C23.4593 31.2435 23.4456 31.2958 23.4181 31.3412C23.3907 31.3865 23.3507 31.4229 23.303 31.4461L20.7841 32.6987C20.523 32.8284 20.6156 33.2232 20.9071 33.2232H27.431C27.7175 33.2232 27.8151 32.8413 27.5653 32.7045L25.1806 31.3931C25.1373 31.3693 25.1012 31.3343 25.0759 31.2918C25.0507 31.2493 25.0373 31.2007 25.0372 31.1513V23.6212C25.0372 23.5549 25.061 23.4907 25.1043 23.4406L29.4755 18.3782C29.6306 18.1997 29.5042 17.922 29.2661 17.922H18.758C18.5191 17.9212 18.3919 18.2064 18.5558 18.3836Z" fill="#CCEFFE"/>
<path d="M29.5434 17.9211C29.5434 18.2305 27.5932 18.4799 24.3512 18.4799C21.6434 18.4799 18.4819 18.2305 18.4819 17.9211C18.4819 17.6126 21.1097 17.3624 24.3512 17.3624C27.5928 17.3619 29.5434 17.6117 29.5434 17.9211Z" fill="#AED1E0"/>
</svg>
